<?xml version="1.0" encoding="UTF-8" standalone="no"?>
<!DOCTYPE svg PUBLIC "-//W3C//DTD SVG 1.1//EN" "http://www.w3.org/Graphics/SVG/1.1/DTD/svg11.dtd">
<svg width="100%" height="100%" viewBox="0 0 600 400" version="1.1" xmlns="http://www.w3.org/2000/svg" xmlns:xlink="http://www.w3.org/1999/xlink" xml:space="preserve" xmlns:serif="http://www.serif.com/" style="fill-rule:evenodd;clip-rule:evenodd;stroke-linejoin:round;stroke-miterlimit:2;">
    <g id="Layer1">
        <rect x="-1028.23" y="-248.288" width="1712.17" height="4055.19" style="fill:#3d4345;"/>
        <rect x="-13.101" y="-13.059" width="626.202" height="426.201" style="fill:url(#_Radial1);"/>
        <g id="CorelEMF" serif:id="CorelEMF">
        </g>
        <g id="CorelEMF1" serif:id="CorelEMF">
        </g>
        <g>
            <circle cx="300" cy="200.041" r="134.076"/>
            <path d="M343.895,142.505L292.27,142.505L297.423,147.659C301.889,151.554 304.454,153.903 309.777,152.944L305.473,155.708L348.465,198.7C357.666,207.901 357.666,222.842 348.465,232.043C339.264,241.245 324.323,241.245 315.122,232.043L268.607,185.528C268.607,185.528 268.179,185.102 268.15,185.075C265.417,182.499 261.114,185.755 263.011,189.023C263.024,189.043 263.02,189.069 263.002,189.084C262.984,189.099 262.957,189.098 262.94,189.081C258.419,183.377 265.583,176.291 271.433,181.736C271.478,181.777 272.078,182.37 272.078,182.37L318.436,228.729L318.48,228.772C325.856,236.1 337.793,236.086 345.15,228.729C352.522,221.357 352.522,209.387 345.15,202.015L298.352,155.217L298.253,155.118C281.293,138.267 253.846,138.301 236.93,155.217C219.981,172.167 219.981,199.689 236.93,216.639L238.587,218.296C239.168,218.15 239.74,217.95 240.295,217.695L241.632,217.08C243.624,216.164 245.946,216.326 247.792,217.509C249.638,218.692 250.754,220.733 250.754,222.926L250.754,230.463L266.012,245.721L268.116,247.838C270.843,250.566 275.258,247.276 273.341,243.973C273.328,243.953 273.332,243.927 273.35,243.912C273.368,243.897 273.395,243.898 273.412,243.915C277.901,249.579 270.868,256.607 265.04,251.372C264.915,251.259 264.369,250.708 264.369,250.708L247.931,234.269L247.931,222.926C247.931,221.695 247.304,220.55 246.268,219.886C245.232,219.222 243.93,219.132 242.812,219.646C242.372,219.848 241.924,220.054 241.475,220.26C237.47,222.102 232.794,221.712 229.149,219.234C222.696,214.845 213.233,208.411 213.233,208.411C213.233,208.411 219.668,217.874 224.056,224.327C226.534,227.972 226.924,232.648 225.082,236.653C224.876,237.101 224.67,237.55 224.468,237.99C223.954,239.108 224.044,240.41 224.708,241.446C225.372,242.482 226.518,243.109 227.748,243.109L239.091,243.109L255.779,259.796C261.572,265.59 270.979,265.59 276.773,259.796C282.566,254.003 282.566,244.596 276.773,238.802C276.773,238.802 245.77,207.8 245.77,207.8L245.629,207.658C233.699,195.576 233.746,176.081 245.77,164.057C257.841,151.986 277.442,151.986 289.513,164.057L336.183,210.726C336.183,210.726 336.436,210.978 336.48,211.019C339.215,213.517 343.461,210.279 341.574,207.029C341.561,207.009 341.565,206.983 341.583,206.968C341.602,206.953 341.628,206.954 341.645,206.97C346.132,212.632 339.109,219.654 333.284,214.437C333.222,214.381 332.77,213.943 332.77,213.943L286.198,167.372C275.956,157.13 259.327,157.13 249.085,167.372C238.843,177.613 238.843,194.243 249.085,204.485L282.267,237.667L296.175,251.572C313.146,268.232 340.451,268.136 357.305,251.282C374.254,234.333 374.254,206.81 357.305,189.861L341.171,173.727C353.669,175.616 364.911,173.129 366.105,183.833C369.052,177.836 370.986,173.067 369.125,165.624C365.141,166.932 365.306,170.703 362.941,170.94C358.102,171.423 346.072,163.673 346.072,163.673C341.77,164.45 338.147,162.766 337.679,161.078C340.946,162.853 344.828,162.808 348.622,161.172C353.023,159.275 360.391,156.075 363.194,155.966C364.077,155.931 364.702,159.928 370.392,162.304C372.058,157.189 372.52,151.731 371.251,145.778C371.116,145.158 370.667,144.653 370.067,144.446C369.466,144.239 368.802,144.36 368.313,144.765C367.035,145.791 365.359,146.582 362.821,146.856L343.489,147.168C344.281,152.322 335.634,151.959 336.726,147.453C334.436,147.199 332.876,146.6 332.254,145.558L348.071,145.648C347.497,143.857 346.4,142.541 343.895,142.505ZM364.181,149.563C367.768,149.657 368.616,148.556 369.322,148.021C369.452,149.393 368.923,150.57 366.751,151.156L364.181,149.563Z" style="fill:#fff;"/>
            <path d="M300,70.437C371.668,70.437 429.605,128.374 429.605,200.041C429.605,271.709 371.668,329.646 300,329.646C228.667,329.646 170.395,271.709 170.395,200.041C170.395,128.374 228.667,70.437 300,70.437ZM190.154,174.589L191.159,168.896L192.833,168.896C194.173,169.231 195.512,169.901 196.182,170.236C196.852,170.905 197.522,171.91 197.522,173.584C197.522,174.924 197.187,177.268 196.852,180.617C196.182,184.301 195.512,186.98 195.178,188.32C194.843,189.994 194.173,190.999 193.838,191.669C193.168,192.339 192.498,192.674 191.829,193.008C191.159,193.343 190.489,193.343 189.484,193.343C188.48,193.008 186.805,193.008 184.796,192.674C182.451,192.004 180.777,191.669 180.107,191.669C179.102,191.334 178.433,190.999 177.763,190.664C176.758,189.994 176.088,188.655 176.088,186.98C176.088,185.306 176.423,181.957 177.093,177.268C177.763,174.924 178.098,172.915 178.433,171.91C178.768,170.905 179.102,169.901 179.437,169.566C180.107,168.561 180.777,168.226 181.447,167.891L185.131,167.891C185.131,167.891 185.466,168.226 186.135,168.226L185.131,173.919L183.791,173.919C183.456,173.919 183.456,173.919 183.121,174.254C183.121,174.254 182.786,174.924 182.451,175.594C182.451,176.599 182.117,177.938 181.782,179.613C181.447,181.622 181.112,182.962 181.112,183.631C181.112,184.301 181.112,184.636 181.447,184.971C181.447,185.306 182.117,185.641 182.451,185.976C183.121,186.311 184.126,186.645 185.8,186.645C187.14,186.98 188.145,187.315 188.814,186.98C189.484,186.98 189.819,186.98 190.154,186.645C190.489,186.311 190.824,185.976 190.824,185.306C191.159,184.636 191.494,183.296 191.829,181.622C192.163,179.278 192.163,177.938 192.498,176.933C192.498,176.264 192.498,175.929 192.163,175.594C191.829,175.259 191.159,174.924 190.154,174.589ZM185.8,206.069C188.145,206.069 190.154,208.079 190.154,210.758C190.154,213.437 188.145,215.447 185.8,215.447C183.121,215.447 181.112,213.437 181.112,210.758C181.112,208.079 183.121,206.069 185.8,206.069ZM414.869,206.069C417.549,206.069 419.558,208.079 419.558,210.758C419.558,213.437 417.549,215.447 414.869,215.447C412.525,215.447 410.516,213.437 410.516,210.758C410.516,208.079 412.525,206.069 414.869,206.069ZM185.466,231.522L187.475,236.88C186.805,237.215 186.135,237.55 186.135,237.885L186.135,239.224C186.135,239.559 186.805,240.899 187.475,242.908C188.48,245.252 189.149,246.592 189.149,246.927C189.484,247.262 189.484,247.597 189.819,247.931C190.154,248.266 190.824,248.266 191.494,247.931C191.829,247.931 192.163,247.597 192.163,247.262C192.498,246.927 192.163,246.257 191.829,245.252C191.494,244.582 191.159,243.243 190.489,241.234C189.819,238.889 189.149,237.55 188.814,236.88C188.48,235.54 188.145,234.536 188.145,233.866C188.145,232.861 188.145,232.191 188.48,231.856C188.814,230.852 190.154,230.182 191.829,229.177C193.838,228.507 195.512,228.507 196.517,228.842C197.187,229.177 198.192,229.847 198.861,230.852C199.196,232.191 200.536,234.536 201.875,238.219C202.88,240.564 203.55,242.573 203.55,243.578C204.22,245.252 204.22,246.592 203.55,247.262C203.215,248.266 202.21,248.936 200.536,249.606C200.536,249.606 200.201,249.941 199.866,249.941L197.857,244.917C198.192,244.582 198.526,244.248 198.861,244.248C198.861,244.248 198.861,243.913 199.196,243.578C199.196,243.578 198.861,242.908 198.861,242.238C198.526,241.903 198.192,240.564 197.522,238.554C196.517,236.545 195.847,235.205 195.512,234.536C195.178,234.201 194.843,234.201 194.173,234.536C193.503,234.536 193.168,234.87 193.168,235.54C193.503,235.875 193.838,237.885 195.178,241.234C196.182,244.248 196.852,246.257 197.187,246.927C197.522,247.931 197.522,248.936 197.522,249.606C197.187,250.276 196.852,250.945 196.182,251.615C195.847,251.95 194.843,252.62 193.503,252.955C191.829,253.625 190.489,253.96 189.819,253.96C188.814,253.96 188.48,253.625 187.81,252.955C187.14,252.62 186.805,251.95 186.135,250.611C185.8,249.606 184.796,247.597 183.456,244.248C182.451,241.903 181.782,239.894 181.447,238.554C181.112,237.215 181.112,236.21 181.112,235.54C181.112,234.536 181.447,233.866 182.117,233.531C182.451,232.861 183.456,232.526 184.796,231.856L185.466,231.522ZM207.569,251.95L210.918,256.974L199.196,264.341L206.229,275.728L202.21,278.072L191.829,261.997L207.569,251.95ZM229.337,278.407C232.351,281.421 234.36,283.096 235.365,284.435C236.705,286.11 237.04,287.784 236.035,289.459C235.365,290.463 234.025,292.138 232.016,294.482C230.007,296.491 228.667,297.831 227.328,298.501C225.988,299.505 224.313,299.171 222.304,297.831C221.299,297.161 218.955,295.152 216.276,292.473C213.262,289.793 211.253,287.784 210.248,286.444C208.908,284.77 208.573,283.096 209.578,281.421C210.248,280.416 211.587,278.742 213.597,276.398C215.606,274.388 216.946,273.049 218.285,272.379C219.625,271.374 221.299,271.709 223.309,273.049C224.313,273.718 226.658,275.728 229.337,278.407ZM225.988,282.091C223.979,280.081 222.639,278.742 221.969,278.407C221.299,278.072 220.63,278.072 220.295,278.407C219.625,278.742 218.62,279.412 217.281,280.751C216.611,281.756 215.941,282.426 215.606,282.761C215.271,283.765 215.271,284.435 215.941,285.44C216.611,286.11 217.616,287.114 219.625,288.789C221.299,290.463 222.304,291.468 222.974,292.138C223.644,292.473 223.979,292.808 224.648,292.808C224.983,292.808 225.318,292.808 225.988,292.473C226.323,292.138 226.993,291.468 227.662,290.798C228.667,289.793 229.337,289.124 229.672,288.454C230.007,288.119 230.342,287.449 230.342,287.114C230.342,286.779 230.007,286.11 229.672,285.44C229.337,285.105 227.997,283.765 225.988,282.091ZM247.421,301.18L259.143,307.208L258.808,307.543C257.803,309.887 256.798,311.562 256.129,312.901C254.789,314.576 253.115,315.246 250.77,314.576C250.1,314.241 248.761,313.906 247.756,313.571C246.752,312.901 245.077,312.231 242.733,310.892C239.719,309.552 237.709,308.548 236.705,307.543C235.7,306.873 234.695,306.203 234.36,305.199C234.025,304.864 234.025,304.194 234.025,303.524C234.025,302.854 234.025,302.185 234.36,301.18C234.695,300.51 235.365,298.836 236.705,296.826C237.374,295.152 238.044,294.147 238.379,293.142C239.049,292.473 239.384,291.803 240.054,291.468C241.058,290.463 242.398,290.128 244.407,290.798C246.082,291.133 248.761,292.473 252.445,294.147C254.454,295.487 256.129,296.156 257.133,296.826C258.473,297.831 259.478,298.501 260.147,299.171C261.152,300.175 261.487,301.515 261.152,302.854C260.817,303.524 260.482,304.529 259.812,305.534L254.789,303.189C255.124,302.519 255.124,302.185 255.124,302.185L255.124,301.515C254.789,301.18 254.454,300.845 253.449,300.175C252.78,299.84 251.44,299.171 249.766,298.166C248.091,297.161 246.752,296.826 246.082,296.491C245.077,296.156 244.407,296.156 244.072,296.156C243.737,296.156 243.403,296.491 243.068,296.826C242.733,297.496 242.063,298.166 241.393,299.505C240.723,300.845 240.388,301.85 240.054,302.519L240.054,303.859C240.388,304.194 240.723,304.529 241.058,304.864C241.393,305.199 242.733,305.868 245.077,307.208C247.421,308.213 248.761,308.883 249.431,309.217C249.766,309.552 250.435,309.552 250.77,309.552C251.105,309.552 251.44,309.552 251.44,309.217C251.775,309.217 252.11,308.883 252.11,308.548C252.11,308.213 252.445,308.213 252.445,307.878L245.747,304.529L247.421,301.18ZM281.246,323.618L280.576,320.269L268.52,317.59L266.175,320.269L259.812,318.595L273.878,302.519L282.25,304.529L287.609,325.292L281.246,323.618ZM279.571,315.915L277.562,307.878L276.557,307.878L271.199,313.906L279.571,315.915ZM292.967,306.873L303.014,306.203L313.731,319.264L314.401,319.264L313.061,305.199L319.089,304.864L320.429,323.618L310.382,324.288L299.665,311.227L298.995,311.227L300,325.292L294.307,325.627L292.967,306.873ZM339.518,299.171L344.876,296.491L347.89,302.185L359.277,296.491L356.263,290.463L361.621,287.784L370.328,304.529L364.97,307.208L361.621,301.18L350.234,306.873L353.248,312.901L347.89,315.915L339.518,299.171ZM363.965,285.775L379.035,271.374L382.05,274.723L370.998,285.105L373.007,287.114L383.389,277.067L386.068,280.081L375.687,290.128L377.696,292.138L388.747,281.756L392.096,284.77L377.026,299.171L363.965,285.775ZM396.785,279.412L381.715,268.36L389.752,257.309C391.427,254.629 392.766,252.955 393.101,252.62C393.436,251.95 394.106,251.615 394.776,251.28C395.445,250.945 396.115,250.945 397.12,251.28C397.79,251.615 398.794,251.95 400.134,252.955C401.139,253.625 402.143,254.294 402.478,254.964C402.813,255.299 403.148,255.969 403.148,256.639C403.148,257.309 402.813,257.978 402.478,258.983C403.148,257.978 404.153,257.643 404.822,257.309C405.157,257.309 405.827,257.643 406.162,257.643C406.832,257.978 407.502,258.648 408.841,259.318L410.181,260.323L407.167,265.011L406.162,264.341C405.492,264.006 404.822,263.337 404.488,263.337C403.818,263.002 403.483,263.002 403.148,263.002C403.148,263.002 402.813,263.337 402.478,263.672C402.143,263.672 401.808,264.341 401.139,265.346L396.45,272.044L400.134,274.723L396.785,279.412ZM392.431,269.365L397.12,262.667C398.125,261.662 398.459,260.657 398.459,260.657C398.794,260.323 398.794,259.988 398.794,259.988C398.794,259.653 398.794,259.318 398.459,258.983C398.459,258.648 398.125,258.648 397.455,257.978C397.12,257.643 396.45,257.643 396.115,257.643C396.115,257.309 395.78,257.309 395.445,257.643C395.11,257.643 395.11,257.978 394.776,257.978C394.776,258.313 394.106,258.983 393.436,259.988L388.747,266.686L392.431,269.365ZM395.78,246.257L403.483,226.833L407.502,228.507L402.143,242.573L404.488,243.578L409.846,230.182L413.865,231.856L408.506,245.252L411.185,246.257L416.879,232.191L420.897,233.866L413.53,253.29L395.78,246.257ZM186.135,148.802C187.81,144.783 189.149,142.439 190.154,141.1C191.159,139.09 192.833,138.42 194.508,138.755C195.847,138.755 197.857,139.425 200.536,140.765C203.55,142.104 205.224,143.109 206.229,143.779C207.569,145.118 208.238,146.793 207.569,148.802C206.899,150.477 205.894,153.156 204.22,156.84C202.545,160.524 201.206,163.203 200.536,164.542C199.196,166.552 197.857,167.221 195.847,166.887C194.508,166.552 192.498,165.882 189.819,164.877C187.14,163.538 185.131,162.533 184.126,161.528C182.786,160.524 182.451,158.849 183.121,156.505C183.456,155.165 184.461,152.486 186.135,148.802ZM190.824,150.812C189.484,153.491 188.814,155.165 188.814,155.835C188.48,156.505 188.814,157.175 189.149,157.844C189.819,158.179 190.824,158.849 192.833,159.519C193.838,160.189 194.508,160.524 195.178,160.524C196.182,160.858 196.852,160.189 197.522,159.184C197.857,158.514 198.526,157.175 199.866,154.83C200.536,152.486 201.206,151.146 201.541,150.477C201.875,149.807 201.875,149.137 201.875,148.467C201.541,148.132 201.541,147.797 200.871,147.463C200.536,147.128 199.866,146.793 198.861,146.458C197.522,145.788 196.517,145.453 195.847,145.118C195.178,145.118 194.843,144.783 194.508,145.118C193.838,145.118 193.503,145.453 193.168,146.123C192.498,146.793 191.829,148.132 190.824,150.812ZM195.847,130.383L202.545,122.345L215.941,126.029L210.248,113.638L216.946,105.601L231.681,118.327L227.662,122.68L216.946,112.968L216.276,113.638L222.639,128.708L219.29,132.392L203.55,128.374L202.88,129.043L213.932,138.42L210.248,142.774L195.847,130.383ZM234.025,117.322L223.644,101.247L234.695,93.879C236.705,92.54 238.044,91.87 238.714,91.535C240.723,90.53 242.063,90.53 243.068,90.865C244.072,91.2 245.412,92.54 246.752,94.884C248.091,96.893 248.761,98.233 248.761,99.238C248.761,100.242 248.761,100.912 248.091,101.582C247.756,102.252 247.086,102.921 246.417,103.591C245.747,103.926 244.407,104.931 242.398,106.27L236.37,110.289L238.714,113.973L234.025,117.322ZM233.691,106.27L239.719,102.252C241.058,101.582 241.728,100.912 241.728,100.912C242.063,100.577 242.063,100.577 242.398,100.242C242.398,99.907 242.733,99.572 242.398,99.238C242.398,98.903 242.063,98.568 241.728,97.898C241.393,97.228 241.058,96.893 240.723,96.893C240.388,96.558 240.054,96.558 239.719,96.558C239.719,96.558 238.714,97.228 237.04,97.898L231.011,101.917L233.691,106.27ZM273.208,97.898L270.529,95.219L258.473,99.238L257.803,102.921L251.775,104.931L255.124,83.497L263.831,80.818L279.236,95.554L273.208,97.898ZM267.18,91.87L261.487,86.177L260.147,86.512L259.143,94.549L267.18,91.87ZM278.567,76.465L288.614,75.795L299.665,89.526L300.335,89.191L299.33,75.125L305.023,74.455L306.698,93.879L296.316,94.549L285.265,80.818L284.595,81.153L285.934,95.219L279.906,95.889L278.567,76.465ZM310.382,75.125L317.749,76.465L322.773,85.172L329.806,78.474L337.508,79.814L324.782,90.195L323.778,96.893L317.749,95.889L319.089,89.191L310.382,75.125ZM356.932,88.186L365.305,93.544L366.309,110.959L366.644,111.294L374.347,99.238L379.37,102.587L368.989,118.662L360.281,113.303L359.611,95.554L358.942,95.219L351.574,107.275L346.551,104.261L356.932,88.186ZM384.729,136.076L386.068,132.727L377.696,123.35L374.347,124.02L369.993,118.996L391.092,114.308L397.12,121.006L389.082,141.1L384.729,136.076ZM388.078,128.708L391.092,121.006L390.422,120.001L382.384,122.011L388.078,128.708ZM407.167,133.732L411.52,143.109L402.813,153.491L416.209,153.491L420.563,163.203L403.148,171.24L400.804,165.882L413.865,160.189L413.53,159.184L397.455,158.514L395.445,154.161L405.827,141.769L405.157,140.765L392.096,146.793L389.752,141.434L407.167,133.732ZM421.902,170.236L425.586,191.334L421.232,192.004L418.553,176.599L415.874,177.268L418.218,191.669L414.2,192.339L411.52,177.938L408.506,178.608L411.185,194.013L406.832,194.683L403.148,173.584L421.902,170.236ZM300,97.898C356.597,97.898 402.143,143.779 402.143,200.041C402.143,256.639 356.597,302.185 300,302.185C243.737,302.185 197.857,256.639 197.857,200.041C197.857,143.779 243.737,97.898 300,97.898Z" style="fill:#f00;"/>
        </g>
        <g>
            <g id="CorelEMF2" serif:id="CorelEMF">
            </g>
        </g>
        <g id="CorelEMF3" serif:id="CorelEMF">
        </g>
        <g id="CorelEMF4" serif:id="CorelEMF">
        </g>
    </g>
    <defs>
        <radialGradient id="_Radial1" cx="0" cy="0" r="1" gradientUnits="userSpaceOnUse" gradientTransform="matrix(2.19595e-14,-366.128,358.626,2.24189e-14,300,200.041)"><stop offset="0" style="stop-color:#fff;stop-opacity:1"/><stop offset="1" style="stop-color:#eee;stop-opacity:1"/></radialGradient>
    </defs>
</svg>
